<svg fill="none" height="47" viewBox="0 0 386 47" width="386" xmlns="http://www.w3.org/2000/svg"><path d="m.896253 46v-45.440002h30.016047v5.120002h-24.25605v15.168h20.41605v4.8h-20.41605v20.352zm52.372047.32c-3.2 0-6.1227-.64-8.768-1.92-2.6027-1.3227-4.8427-3.0507-6.72-5.184-1.8774-2.176-3.328-4.6507-4.352-7.424s-1.536-5.6107-1.536-8.512c0-3.0293.5333-5.9307 1.6-8.704 1.1093-2.7733 2.624-5.22667 4.544-7.36s4.1813-3.81867 6.784-5.056c2.6453-1.280003 5.504-1.920002 8.576-1.920002 3.2 0 6.1013.682667 8.704 2.048002 2.6026 1.32267 4.8426 3.072 6.72 5.248 1.8773 2.176 3.328 4.6507 4.352 7.424 1.024 2.7307 1.536 5.5253 1.536 8.384 0 3.0293-.5547 5.9307-1.664 8.704-1.0667 2.7733-2.56 5.2267-4.48 7.36-1.8774 2.0907-4.1387 3.776-6.784 5.056-2.6027 1.2373-5.44 1.856-8.512 1.856zm-15.552-23.04c0 2.304.3626 4.544 1.088 6.72.768 2.1333 1.8346 4.032 3.2 5.696 1.3653 1.664 3.008 2.9867 4.928 3.968s4.0533 1.472 6.4 1.472c2.432 0 4.608-.512 6.528-1.536 1.92-1.0667 3.5413-2.432 4.864-4.096 1.3653-1.7067 2.3893-3.6267 3.072-5.76.7253-2.1333 1.088-4.288 1.088-6.464 0-2.304-.384-4.5227-1.152-6.656-.7254-2.176-1.792-4.0747-3.2-5.696-1.3654-1.664-3.008-2.98667-4.928-3.968-1.8774-.98133-3.968-1.472-6.272-1.472-2.432 0-4.608.512-6.528 1.536s-3.5627 2.368-4.928 4.032c-1.3227 1.664-2.3467 3.5627-3.072 5.696-.7254 2.1333-1.088 4.3093-1.088 6.528zm42.435 22.72v-45.440002h19.456c2.0057 0 3.8397.426666 5.5037 1.280002 1.707.81067 3.158 1.92 4.352 3.328 1.238 1.36533 2.198 2.92267 2.88 4.672.683 1.7067 1.024 3.456 1.024 5.248 0 1.5787-.234 3.1147-.704 4.608-.426 1.4507-1.066 2.7733-1.92 3.968-.81 1.1947-1.813 2.2187-3.008 3.072-1.152.8533-2.453 1.472-3.904 1.856l11.008 17.408h-6.528l-10.3677-16.32h-12.032v16.32zm5.76-21.44h13.76c1.1947 0 2.2617-.256 3.1997-.768.982-.512 1.814-1.1947 2.496-2.048.683-.896 1.216-1.92 1.6-3.072s.576-2.3467.576-3.584c0-1.28-.234-2.4747-.704-3.584-.426-1.152-1.024-2.15467-1.792-3.008-.725-.896-1.6-1.57867-2.624-2.048-.981-.512-2.026-.768-3.1357-.768h-13.376z" fill="#979797"/><path d="m133.281 46v-45.376003h5.76v25.088003l23.424-25.152002h6.208l-18.24 20.032002 19.264 25.408h-6.272l-16.512-22.08-7.872 8.192v13.888zm70.038-5.12v5.12h-30.848v-45.440002h30.272v5.120002h-24.512v14.72h21.312v4.8h-21.312v15.68zm7.07-40.320002 13.76 23.680002 13.888-23.680002h6.272l-17.28 28.864002v16.576h-5.76v-16.704l-17.216-28.736002zm37.65 45.440002v-45.440002h19.456c2.005 0 3.84.426666 5.504 1.280002 1.706.81067 3.157 1.92 4.352 3.328 1.237 1.36533 2.197 2.92267 2.88 4.672.682 1.7067 1.024 3.456 1.024 5.248 0 1.5787-.235 3.1147-.704 4.608-.427 1.4507-1.067 2.7733-1.92 3.968-.811 1.1947-1.814 2.2187-3.008 3.072-1.152.8533-2.454 1.472-3.904 1.856l11.008 17.408h-6.528l-10.368-16.32h-12.032v16.32zm5.76-21.44h13.76c1.194 0 2.261-.256 3.2-.768.981-.512 1.813-1.1947 2.496-2.048.682-.896 1.216-1.92 1.6-3.072s.576-2.3467.576-3.584c0-1.28-.235-2.4747-.704-3.584-.427-1.152-1.024-2.15467-1.792-3.008-.726-.896-1.6-1.57867-2.624-2.048-.982-.512-2.027-.768-3.136-.768h-13.376zm33.742 21.44v-45.440002h5.76v45.440002zm19.825-34.688v34.688h-5.76v-45.440002h4.48l28.16 35.392002v-35.328003h5.76v45.376003h-4.864zm72.994 28.544c-4.01 4.3093-8.618 6.464-13.824 6.464-3.029 0-5.845-.6613-8.448-1.984-2.56-1.3227-4.778-3.0507-6.656-5.184-1.877-2.176-3.37-4.6507-4.48-7.424-1.066-2.7733-1.6-5.632-1.6-8.576 0-3.072.534-5.9733 1.6-8.704 1.067-2.7733 2.539-5.20534 4.416-7.296 1.878-2.13333 4.118-3.81867 6.72-5.056 2.603-1.237336 5.419-1.856002 8.448-1.856002 4.395 0 8 .917332 10.816 2.752002 2.859 1.83467 5.035 4.224 6.528 7.168l-4.416 3.072c-1.365-2.6453-3.178-4.608-5.44-5.888-2.261-1.28-4.8-1.92-7.616-1.92-2.304 0-4.394.512-6.272 1.536-1.877.98133-3.477 2.304-4.8 3.968-1.322 1.6213-2.346 3.52-3.072 5.696-.725 2.1333-1.088 4.352-1.088 6.656 0 2.432.406 4.736 1.216 6.912.811 2.1333 1.92 4.032 3.328 5.696 1.408 1.6213 3.072 2.9013 4.992 3.84s4.011 1.408 6.272 1.408c4.95 0 9.408-2.3893 13.376-7.168v-6.272h-9.792v-4.352h14.656v22.656h-4.864z" fill="#ed293b"/></svg>